# xmcd
#
# Track frame offsets: 
#        150
#        28960
#        51247
#        73655
#        98400
#        120780
#        141555
#        157937
#        180147
#        198757
#        221500
#
# Disc length: 3288 seconds
#
# Revision: 9
# Processed by: cddbd v1.5.2PL0 Copyright (c) Steve Scherf et al.
# Submitted via: ExactAudioCopy v0.99pb5
#
DISCID=8d0cd60b
DTITLE=Creed - My Own Prison
DYEAR=1997
DGENRE=Post-Grunge
TTITLE0=Torn
TTITLE1=Ode
TTITLE2=My Own Prison
TTITLE3=Pity For A Dime
TTITLE4=In America
TTITLE5=Illusion
TTITLE6=Unforgiven
TTITLE7=Sister
TTITLE8=What's This Life For
TTITLE9=One
TTITLE10=Bound And Tied (Bonus Track)
EXTD=
EXTT0=
EXTT1=
EXTT2=
EXTT3=
EXTT4=
EXTT5=
EXTT6=
EXTT7=
EXTT8=
EXTT9=
EXTT10=
PLAYORDER=
